<svg xmlns="http://www.w3.org/2000/svg" width="26" height="27"><path fill="#FFF" fill-rule="evenodd" d="M25.76 6.14L13.19.04a.43.43 0 0 0-.38 0L8.23 2.26V.86c0-.23-.2-.43-.43-.43H6.07c-.24 0-.44.2-.44.44v2.65L.24 6.14a.44.44 0 0 0-.23.49c.04.2.22.33.42.33h1.3v17.48c-.5.16-.86.66-.86 1.27V27h24.26v-1.3c0-.6-.36-1.1-.86-1.26V6.96h1.3c.2 0 .37-.13.42-.33a.44.44 0 0 0-.23-.5zm-8 2.13h4.34v4.36h-4.33V8.27zm0 5.66h4.34v4.36h-4.33v-4.36zm-6.93-5.66h4.34v4.36h-4.34V8.27zm0 5.66h4.34v4.36h-4.34v-4.36zM3.9 8.27h4.33v4.36H3.9V8.27zm0 5.66h4.33v4.36H3.9v-4.36zm6.93 6.13h4.34v4.35h-4.34v-4.35z"/></svg>