<svg xmlns="http://www.w3.org/2000/svg" width="32" height="34"><path fill="#FFF" fill-rule="evenodd" d="M0 32.1v-2c1-.1 1.9.2 2.7.7l1.8.9 1 .1L4 26.5l-1-4c-.1-.6 0-1 .5-1.4l2.7-1.8c.2-.2.3-.4.3-.8v-8c0-1.2.4-1.6 1.5-1.6h4.5v-.6-6.8C12.6.4 12.9 0 14 0h4c1 0 1.4.4 1.4 1.4v7.5h4.5c1 0 1.4.4 1.4 1.4v8.1c0 .4 0 .7.4.9l2.5 1.8c.7.5.8.7.6 1.5l-2.2 8.9v.3c.7 0 1.3-.1 2-.6 1.3-.9 2-1.1 3.4-1.1v2.1c-1 0-1.8.6-2.6 1-2 1.2-4 1-6-.3-1.4-1-2.8-1-4.2 0a5.6 5.6 0 0 1-6.6 0 3.4 3.4 0 0 0-4 0 5.7 5.7 0 0 1-6.4.2l-1-.7-1.2-.3zm8.9-14.7l.4-.3 5.8-4.2c.8-.5 1-.5 1.8 0l5.7 4 .5.4v-6.2H9v6.3zM5.8 24l.2-.1a4558.1 4558.1 0 0 0 8.9-6.5v-1.6l-9.3 6.6s-.2.2-.1.3l.3 1.3zm20.4 0l.2-1c.2-.3 0-.5-.2-.8l-8.6-6-.5-.4V17c0 .4 0 .6.4.8l3.7 2.7 5 3.5zm-9-20.5V2.3h-2.4v1.2h2.4z"/></svg>