<svg xmlns="http://www.w3.org/2000/svg" width="33" height="30"><path fill="#FFF" fill-rule="evenodd" d="M30.5 30v-7.3h-5.8V30h-2.5v-7.3h-5.9V30h-2.5v-7.3H8V30H0v-8c0-.3 0-.5.3-.7 0 0 3-3 5.6-5.9 2.4-2.6 5.6-7.2 5.6-7.3.2-.3.5-.4.8-.4.3 0 .6.2.7.4l2 2.7 3.2-4.6c.3-.3.6-.5 1-.5.5 0 .9.2 1 .5.1 0 3 4.6 5.8 7.5a388.2 388.2 0 0 0 7 7.7V30h-2.5zM14 16l-4 4.2h5.4c1.5-3.2 2.5-6.5 3.1-10-1.2 1.8-3 4.1-4.5 5.8zm10.2-.6c-1.4-1.6-2.9-3.5-4-5.1.6 3.4 1.6 6.7 3 9.9h5.6L24 15.4zM19.3 4.6H19l-4.2-1.7a.6.6 0 0 1 0-1.1L19 0a.6.6 0 0 1 .8.5V4a.6.6 0 0 1-.5.5zm-7 2.1H12L7.8 5a.6.6 0 0 1 0-1.1L12 2a.6.6 0 0 1 .8.6v3.5a.6.6 0 0 1-.6.5z"/></svg>