<svg xmlns="http://www.w3.org/2000/svg" width="29" height="28"><defs><linearGradient id="a" x1="0%" x2="48.5%" y1="87.5%" y2="0%"><stop offset="1%" stop-color="#7A6AF1"/><stop offset="100%" stop-color="#7AC9FA"/></linearGradient></defs><path fill="#FFF" fill-rule="evenodd" d="M4.2 23.8l1-1.3c.3-.3.3-.4 0-.5l-5-2c-.2 0-.2-.2 0-.3l1-1.1.5-.2 5.2.5c.3 0 .5 0 .6-.2l2.4-3 4.5-4.4.3-.3-1.7-.7-7.6-2.9-2.5-1c-.4 0-.4-.2-.1-.5l2-2c.2-.2.5-.3.8-.2l6 1c.3 0 .6-.1.9-.4l2-2c.4-.5 1.2-.5 1.7 0s.4 1.2 0 1.7l-1 1v.1l.2.1 4.2.7c.3 0 .4-.1.6-.3l4-4A6 6 0 0 1 27 .1c.3-.1.6-.2.9.1.2.3.1.6 0 .9-.2 1-.8 1.9-1.5 2.7l-4 4c-.2.2-.3.5-.2.9l.6 4 .1.1h.2l1-1c.4-.4 1-.4 1.4-.1.5.3.7.8.5 1.4l-.3.4-2.1 2.1c-.2.2-.3.4-.2.7l1 6.2c0 .3 0 .4-.2.6L22 25.2c-.2.3-.3.3-.4 0l-3.7-9.7-.7-2c-.1-.1-.2-.1-.4 0l-.6.7-3.4 3.3a28.7 28.7 0 0 1-3.5 3L9 21l.5 5.3c0 .3 0 .4-.3.6l-1 1c-.1.2-.3.1-.3-.1l-2-4.9c-.1-.4-.2-.4-.6-.1l-1.2 1z"/><path fill="url(#a)" d="M4.2 23.8l1-1.3c.3-.3.3-.4 0-.5l-5-2c-.2 0-.2-.2 0-.3l1-1.1.5-.2 5.2.5c.3 0 .5 0 .6-.2l2.4-3 4.5-4.4.3-.3-1.7-.7-7.6-2.9-2.5-1c-.4 0-.4-.2-.1-.5l2-2c.2-.2.5-.3.8-.2l6 1c.3 0 .6-.1.9-.4l2-2c.4-.5 1.2-.5 1.7 0s.4 1.2 0 1.7l-1 1v.1l.2.1 4.2.7c.3 0 .4-.1.6-.3l4-4A6 6 0 0 1 27 .1c.3-.1.6-.2.9.1.2.3.1.6 0 .9-.2 1-.8 1.9-1.5 2.7l-4 4c-.2.2-.3.5-.2.9l.6 4 .1.1h.2l1-1c.4-.4 1-.4 1.4-.1.5.3.7.8.5 1.4l-.3.4-2.1 2.1c-.2.2-.3.4-.2.7l1 6.2c0 .3 0 .4-.2.6L22 25.2c-.2.3-.3.3-.4 0l-3.7-9.7-.7-2c-.1-.1-.2-.1-.4 0l-.6.7-3.4 3.3a28.7 28.7 0 0 1-3.5 3L9 21l.5 5.3c0 .3 0 .4-.3.6l-1 1c-.1.2-.3.1-.3-.1l-2-4.9c-.1-.4-.2-.4-.6-.1l-1.2 1z"/></svg>