<svg xmlns="http://www.w3.org/2000/svg" width="26" height="25"><path fill="#FFF" fill-rule="evenodd" d="M26 25h-3.6c-.2 0-.4-.2-.4-.3l-.8-1.2c0-.1-.3-.3-.5-.3H5.3l-.6.3-.7 1.2c0 .1-.2.3-.4.3H0L3.7 18C2 17.2 1.4 16 1.5 14.4V5.7C1.2 3.3 3 2 5.4 1a20 20 0 0 1 5.6-1c3.2-.2 6.4 0 9.3 1 1 .3 2 .9 2.8 1.4.9.6 1.3 1.5 1.3 2.4v10.2c0 1.3-.9 2.2-2.2 3L26 25zM13 10.2h6.7c1.1 0 1.3 0 1.3-.9v-4c0-.5-.3-1-.9-1.1-.7-.4-1.5-.7-2.3-.8a24.7 24.7 0 0 0-11.5.5c-.6.3-1.2.6-1.2 1.2v4.3c0 .7.3.8 1.2.8H13zM6.4 20.5h13.2l-1-1.7-.3-.2a2154.8 2154.8 0 0 0-11 .2l-1 1.7zm.5-4.7c1.2 0 2-.6 2-1.5 0-1-.8-1.6-2-1.6-1.1 0-1.9.7-1.9 1.6 0 .9.8 1.5 1.9 1.5zm14-1.6c0-1-.7-1.6-2-1.6-1 0-1.8.7-1.8 1.6 0 1 .8 1.5 2 1.5 1 0 1.9-.6 1.9-1.5z"/></svg>