<svg xmlns="http://www.w3.org/2000/svg" width="28" height="32"><path fill="#FFF" fill-rule="evenodd" d="M28 7.7c-.3.5-.8.8-1.3.8L24 8.3c-.8 1.2-1.5 1.3-2.6.3l-1-.8c-.5 1-1.3 1.4-2.3.7l-1.3-.8c-.3.5-.7 1-1.4 1-.8 0-1.4-.3-2-.7 1-1.2 2-2.2 3.4-3a8.2 8.2 0 0 1 9 .6c.8.5 1.4 1 2 1.6.2.1.2.3.1.5zm-8.7-6.2l-1.1.6c0 1.1-.2 1.4-1.3 1.3H16c-.6 1.6-2 2.2-3.4 3h-.1l.1-1.4c.5-3 2.7-4.9 5.7-5h1.1c.4 0 .6.2.4.6 0 .3-.3.6-.6.9zM13 8.9c.4 0 .8.2 1 .4 1.3.7 2.3 1.7 3.2 2.8 2.7 3.4 4.4 7.2 5.4 11.3.6 2.3 1 4.6 1.2 7 0 .8-.7 1.6-1.6 1.6h-1.5c-1 0-1.7-.8-1.6-1.7.3-2.4.2-4.7 0-7.1-.6-4.2-2-8-4.6-11.3l-1.7-2-.2-.3V9l.3-.2h.1zM8.1 5.8c-1.4.5-2.5 0-3.5-1l-.4-.1-2.6-.2c-.3 0-.5-.3-.8-.4 1.3-.8 2.6-1.4 4-1.6C8.7 1.9 11 4.5 12 7v.1C11 7.1 9.7 7 8.6 6.5c-.3-.1-.6-.3-.5-.7zm-.3 2.4c1.2-.2 2.4-.2 3.6 0-.4 1.8-1.3 2.4-2.8 2.1l-.2 1-.4.9c-.4.7-1 1-1.8.6l-.3-.1c0 .5 0 1-.2 1.5 0 .3-.2.7-.4 1-.3.4-.8.6-1.4.3-.3 0-.5 0-.7.3l-1.5 1.6c-.4.4-1 .5-1.5.2l-.2-.4c.2-2.3.8-4.5 2.4-6.3a8.2 8.2 0 0 1 5.4-2.7z"/></svg>