<svg xmlns="http://www.w3.org/2000/svg" width="32" height="32"><path fill="#FFF" fill-rule="evenodd" d="M2.4 24.1l-2-2c-.5-.5-.5-1.2 0-1.7l.1-.2L16 4.8l.2-.1.7.5c.3.3.6.3.8 0 .3-.2.3-.6 0-.9l-.5-.6v-.1L20.4.5c.6-.7 1.3-.7 2 0L24 2.3v.1a3.8 3.8 0 0 0 5.4 5.4l2.2 2.1c.4.5.4 1.2-.1 1.7l-1.3 1.3-2 2-.5-.4c-.3-.3-.7-.3-1 0-.2.2-.2.5 0 .8l.5.5c0 .1 0 .2-.2.3L11.8 31.4c-.8.8-1.4.8-2.2 0l-1.8-1.8a3.8 3.8 0 0 0-.3-5.2c-1.3-1.4-3-1.5-5.1-.3zM18.9 5.8c-.4 0-.8.5-.6.9l.7.7c.4.3 1 0 1-.6-.1-.3-.7-1-1-1zM22 9c0-.4-.6-1-1-1-.5 0-.8.5-.5.9l.6.6c.4.3 1 0 1-.5zm1 1c-.4 0-.7.6-.5 1l.7.6c.4.3.9 0 1-.5 0-.4-.7-1-1.1-1zm3.2 3.2c0-.4-.6-1-1-1-.5 0-.8.5-.5.9l.6.6c.4.3 1 0 1-.5z"/></svg>